# xmcd
#
# Track frame offsets: 
#        182
#        16955
#        36595
#        57267
#
# Disc length: 1017 seconds
#
# Revision: 1
# Processed by: cddbd v1.5.2PL0 Copyright (c) Steve Scherf et al.
# Submitted via: ExactAudioCopy v0.99pb4
#
DISCID=2f03f704
DTITLE=Various Artist - Bill and Ted's Bogus Journey Soundtrack (Selections F
DTITLE=rom) (Promo)
DYEAR=1991
DGENRE=Soundtrack
TTITLE0=Slaughter  - Shout It Out (Single Edit)
TTITLE1=Slaughter - Shout It Out (LP Version)
TTITLE2=Megadeth - Go To Hell
TTITLE3=Primus - Tommy The Cat
EXTD=
EXTT0=
EXTT1=
EXTT2=
EXTT3=
PLAYORDER=
